<svg xmlns="http://www.w3.org/2000/svg" width="1459.017" height="694.645" viewBox="0 0 1459.017 694.645">
  <g id="Group_56" data-name="Group 56" transform="translate(-747.604 -235.429)">
    <g id="Group_18" data-name="Group 18" transform="translate(2083.688 674.604)">
      <path id="Path_25" data-name="Path 25" d="M649.448,344.287a5.266,5.266,0,1,0-3.722-1.542,5.3,5.3,0,0,0,3.722,1.542" transform="translate(-644.184 -312.13)" fill="#f9fbfc"/>
      <path id="Path_26" data-name="Path 26" d="M680.385,344.287h.026a5.265,5.265,0,0,0,0-10.53h-.026a5.265,5.265,0,1,0,0,10.53Z" transform="translate(-620.836 -312.13)" fill="#f9fbfc"/>
      <path id="Path_27" data-name="Path 27" d="M664.912,344.287h.026a5.265,5.265,0,1,0,0-10.53h-.026a5.265,5.265,0,0,0,0,10.53Z" transform="translate(-632.513 -312.13)" fill="#f9fbfc"/>
      <path id="Path_28" data-name="Path 28" d="M649.448,331.962a5.266,5.266,0,1,0-3.722-1.542,5.3,5.3,0,0,0,3.722,1.542" transform="translate(-644.184 -321.432)" fill="#f9fbfc"/>
      <path id="Path_29" data-name="Path 29" d="M680.385,331.962h.026a5.265,5.265,0,0,0,0-10.53h-.026a5.265,5.265,0,1,0,0,10.53Z" transform="translate(-620.836 -321.432)" fill="#f9fbfc"/>
      <path id="Path_30" data-name="Path 30" d="M664.912,331.962h.026a5.265,5.265,0,1,0,0-10.53h-.026a5.265,5.265,0,0,0,0,10.53Z" transform="translate(-632.513 -321.432)" fill="#f9fbfc"/>
      <path id="Path_31" data-name="Path 31" d="M649.448,356.612a5.266,5.266,0,1,0-3.722-1.542,5.3,5.3,0,0,0,3.722,1.542" transform="translate(-644.184 -302.828)" fill="#f9fbfc"/>
      <path id="Path_32" data-name="Path 32" d="M680.385,356.612h.026a5.265,5.265,0,0,0,0-10.53h-.026a5.265,5.265,0,1,0,0,10.53Z" transform="translate(-620.836 -302.828)" fill="#f9fbfc"/>
      <path id="Path_33" data-name="Path 33" d="M664.912,356.612h.026a5.265,5.265,0,1,0,0-10.53h-.026a5.265,5.265,0,0,0,0,10.53Z" transform="translate(-632.513 -302.828)" fill="#f9fbfc"/>
    </g>
    <g id="Group_21" data-name="Group 21" transform="translate(1529.125 697.928)">
      <path id="Path_38" data-name="Path 38" d="M406.868,208.539a.874.874,0,0,1-.621-.256L365.24,167.277a.877.877,0,0,1,1.241-1.241l41.006,41.006a.876.876,0,0,1-.619,1.5Z" transform="translate(-364.984 -165.778)" fill="#f9fbfc"/>
    </g>
    <g id="Group_22" data-name="Group 22" transform="translate(1441.186 291.907)">
      <path id="Path_39" data-name="Path 39" d="M506.911,247.392a.881.881,0,0,1-.621-.256L462.565,203.41a.877.877,0,0,1,1.241-1.241L507.53,245.9a.876.876,0,0,1-.619,1.5Z" transform="translate(-462.309 -201.911)" fill="#f9fbfc"/>
    </g>
    <g id="Group_23" data-name="Group 23" transform="translate(1856.492 808.586)">
      <path id="Path_40" data-name="Path 40" d="M660.595,405.205a.869.869,0,0,1-.62-.258l-43.724-43.725a.877.877,0,0,1,1.241-1.241l43.725,43.725a.878.878,0,0,1-.621,1.5Z" transform="translate(-615.993 -359.726)" fill="#f9fbfc"/>
    </g>
    <g id="Group_24" data-name="Group 24" transform="translate(1877.05 291.723)">
      <path id="Path_41" data-name="Path 41" d="M665.476,221.252a.867.867,0,0,1-.619-.256l-43.725-43.724a.877.877,0,1,1,1.241-1.241L666.1,219.755a.876.876,0,0,1-.621,1.5Z" transform="translate(-620.874 -175.774)" fill="#f9fbfc"/>
    </g>
    <g id="Group_25" data-name="Group 25" transform="translate(1321.775 434.483)">
      <path id="Path_42" data-name="Path 42" d="M508.6,249.085a.867.867,0,0,1-.62-.256l-14.87-14.87a.877.877,0,0,1,1.241-1.241l14.868,14.87a.876.876,0,0,1-.619,1.5Z" transform="translate(-492.859 -232.462)" fill="#f9fbfc"/>
    </g>
    <g id="Group_26" data-name="Group 26" transform="translate(839.848 719.691)">
      <path id="Path_43" data-name="Path 43" d="M434.631,372.2a.882.882,0,0,1-.621-.256L405.546,343.48a.877.877,0,0,1,1.241-1.241L435.25,370.7a.876.876,0,0,1-.619,1.5Z" transform="translate(-405.288 -341.983)" fill="#f9fbfc"/>
    </g>
    <g id="Group_27" data-name="Group 27" transform="translate(2178.028 499.668)">
      <path id="Path_44" data-name="Path 44" d="M713.694,274.54a.876.876,0,0,1-.621-.258L698.2,259.414a.878.878,0,0,1,1.241-1.242l14.868,14.87a.878.878,0,0,1-.619,1.5Z" transform="translate(-697.947 -257.915)" fill="#f9fbfc"/>
    </g>
    <g id="Group_28" data-name="Group 28" transform="translate(809.919 566.486)">
      <path id="Path_45" data-name="Path 45" d="M403.977,300.629a.867.867,0,0,1-.619-.256l-14.87-14.87a.877.877,0,0,1,1.241-1.241l14.87,14.87a.876.876,0,0,1-.621,1.5Z" transform="translate(-388.232 -284.006)" fill="#f9fbfc"/>
    </g>
    <g id="Group_32" data-name="Group 32" transform="translate(749.526 516.934)">
      <g id="Group_29" data-name="Group 29">
        <path id="Path_46" data-name="Path 46" d="M355.933,265.348a.874.874,0,0,1-.621-.256l-1.241-1.241a.877.877,0,0,1,1.241-1.241l1.241,1.241a.877.877,0,0,1-.619,1.5Z" transform="translate(-353.815 -262.354)" fill="#f9fbfc"/>
      </g>
      <g id="Group_30" data-name="Group 30" transform="translate(7.077 7.077)">
        <path id="Path_47" data-name="Path 47" d="M385.575,294.993a.875.875,0,0,1-.619-.258l-2.334-2.334a.877.877,0,0,1,1.241-1.241l2.334,2.334a.878.878,0,0,1-.621,1.5Zm-8.172-8.174a.874.874,0,0,1-.619-.256l-2.334-2.334a.877.877,0,1,1,1.241-1.241l2.334,2.334a.876.876,0,0,1-.621,1.5Zm-8.172-8.172a.881.881,0,0,1-.621-.256l-2.334-2.336a.877.877,0,1,1,1.241-1.241l2.336,2.336a.876.876,0,0,1-.621,1.5Zm-8.17-8.17a.875.875,0,0,1-.621-.258l-2.336-2.336a.877.877,0,1,1,1.241-1.241l2.336,2.336a.878.878,0,0,1-.619,1.5Z" transform="translate(-357.848 -266.387)" fill="#f9fbfc"/>
      </g>
      <g id="Group_31" data-name="Group 31" transform="translate(39.766 39.766)">
        <path id="Path_48" data-name="Path 48" d="M378.6,288.011a.876.876,0,0,1-.621-.258l-1.241-1.241a.877.877,0,0,1,1.241-1.241l1.241,1.241a.878.878,0,0,1-.619,1.5Z" transform="translate(-376.477 -285.016)" fill="#f9fbfc"/>
      </g>
    </g>
    <g id="Group_36" data-name="Group 36" transform="translate(1417.253 857.91)">
      <g id="Group_33" data-name="Group 33">
        <path id="Path_49" data-name="Path 49" d="M516.324,390.825a.881.881,0,0,1-.621-.256l-1.235-1.234a.878.878,0,1,1,1.237-1.246l1.241,1.237a.877.877,0,0,1-.621,1.5Z" transform="translate(-514.209 -387.835)" fill="#f9fbfc"/>
      </g>
      <g id="Group_34" data-name="Group 34" transform="translate(7.865 7.863)">
        <path id="Path_50" data-name="Path 50" d="M531.5,406a.874.874,0,0,1-.619-.256l-2.651-2.651a.877.877,0,1,1,1.241-1.241l2.651,2.651a.877.877,0,0,1-.621,1.5Zm-9.279-9.279a.874.874,0,0,1-.62-.256l-2.653-2.653a.877.877,0,0,1,1.241-1.241l2.653,2.653a.876.876,0,0,1-.621,1.5Z" transform="translate(-518.691 -392.316)" fill="#f9fbfc"/>
      </g>
      <g id="Group_35" data-name="Group 35" transform="translate(26.432 26.432)">
        <path id="Path_51" data-name="Path 51" d="M531.387,405.89a.874.874,0,0,1-.623-.26l-1.235-1.235a.877.877,0,0,1,1.241-1.241l1.239,1.239a.878.878,0,0,1-.621,1.5Z" transform="translate(-529.272 -402.898)" fill="#f9fbfc"/>
      </g>
    </g>
    <g id="Group_40" data-name="Group 40" transform="translate(2044.185 431.798)">
      <g id="Group_37" data-name="Group 37">
        <path id="Path_52" data-name="Path 52" d="M623.79,229.686a.875.875,0,0,1-.621-.258l-1.241-1.242a.877.877,0,1,1,1.241-1.241l1.241,1.242a.878.878,0,0,1-.619,1.5Z" transform="translate(-621.672 -226.689)" fill="#f9fbfc"/>
      </g>
      <g id="Group_38" data-name="Group 38" transform="translate(7.707 7.707)">
        <path id="Path_53" data-name="Path 53" d="M692.89,298.786a.88.88,0,0,1-.619-.256l-2.588-2.588a.877.877,0,1,1,1.241-1.241l2.588,2.586a.877.877,0,0,1-.621,1.5Zm-9.053-9.053a.869.869,0,0,1-.619-.258l-2.586-2.585a.877.877,0,1,1,1.241-1.241l2.586,2.585a.878.878,0,0,1-.621,1.5Zm-9.051-9.051a.869.869,0,0,1-.62-.258l-2.586-2.585a.877.877,0,1,1,1.241-1.241l2.586,2.585a.878.878,0,0,1-.621,1.5Zm-9.051-9.051a.876.876,0,0,1-.621-.258l-2.586-2.588a.877.877,0,1,1,1.241-1.241l2.586,2.588a.878.878,0,0,1-.619,1.5Zm-9.053-9.054a.881.881,0,0,1-.621-.256l-2.586-2.586a.878.878,0,0,1,1.242-1.241l2.585,2.586a.876.876,0,0,1-.62,1.5Zm-9.053-9.051a.88.88,0,0,1-.619-.256l-2.586-2.586a.877.877,0,0,1,1.241-1.241l2.587,2.586a.876.876,0,0,1-.621,1.5Zm-9.051-9.051a.869.869,0,0,1-.619-.258l-2.588-2.586a.877.877,0,0,1,1.241-1.241l2.588,2.586a.878.878,0,0,1-.621,1.5Zm-9.053-9.053a.869.869,0,0,1-.619-.258l-2.586-2.585a.877.877,0,1,1,1.241-1.241l2.586,2.585a.878.878,0,0,1-.621,1.5Z" transform="translate(-626.064 -231.081)" fill="#f9fbfc"/>
      </g>
      <g id="Group_39" data-name="Group 39" transform="translate(80.122 80.121)">
        <path id="Path_54" data-name="Path 54" d="M669.45,275.345a.876.876,0,0,1-.621-.258l-1.239-1.241a.877.877,0,0,1,1.239-1.241l1.242,1.241a.878.878,0,0,1-.621,1.5Z" transform="translate(-667.332 -272.349)" fill="#f9fbfc"/>
      </g>
    </g>
    <circle id="Ellipse_1" data-name="Ellipse 1" cx="4.941" cy="4.941" r="4.941" transform="translate(2196.74 592.274)" fill="#f9fbfc"/>
    <circle id="Ellipse_2" data-name="Ellipse 2" cx="4.941" cy="4.941" r="4.941" transform="translate(1842.481 910.499)" fill="#d0e0ea"/>
    <circle id="Ellipse_5" data-name="Ellipse 5" cx="4.941" cy="4.941" r="4.941" transform="translate(2146.345 235.429)" fill="#f9fbfc"/>
    <g id="Group_41" data-name="Group 41" transform="translate(1802.406 396.631)">
      <path id="Path_55" data-name="Path 55" d="M617.169,229.6a5.818,5.818,0,1,1,5.819-5.819A5.825,5.825,0,0,1,617.169,229.6Zm0-9.881a4.063,4.063,0,1,0,4.064,4.062A4.068,4.068,0,0,0,617.169,219.716Z" transform="translate(-611.352 -217.961)" fill="#f9fbfc"/>
    </g>
    <circle id="Ellipse_6" data-name="Ellipse 6" cx="4.941" cy="4.941" r="4.941" transform="translate(747.604 358.877)" fill="#f9fbfc"/>
    <circle id="Ellipse_8" data-name="Ellipse 8" cx="4.941" cy="4.941" r="4.941" transform="translate(1632.677 906.547)" fill="#f9fbfc"/>
    <g id="Group_46" data-name="Group 46" transform="translate(1203.491 812.017)">
      <g id="Group_44" data-name="Group 44" transform="translate(11.034)">
        <path id="Path_58" data-name="Path 58" d="M473.023,367.149a2.734,2.734,0,1,1,2.736-2.734A2.734,2.734,0,0,1,473.023,367.149Z" transform="translate(-470.289 -361.681)" fill="#f9fbfc"/>
        <path id="Path_59" data-name="Path 59" d="M473.023,381.49a2.735,2.735,0,1,1,2.736-2.736A2.735,2.735,0,0,1,473.023,381.49Z" transform="translate(-470.289 -350.859)" fill="#f9fbfc"/>
        <path id="Path_60" data-name="Path 60" d="M473.023,395.829a2.735,2.735,0,1,1,2.736-2.736A2.735,2.735,0,0,1,473.023,395.829Z" transform="translate(-470.289 -340.037)" fill="#f9fbfc"/>
        <path id="Path_61" data-name="Path 61" d="M473.023,410.168a2.735,2.735,0,1,1,2.736-2.736A2.735,2.735,0,0,1,473.023,410.168Z" transform="translate(-470.289 -329.215)" fill="#f9fbfc"/>
        <path id="Path_62" data-name="Path 62" d="M473.023,424.507a2.735,2.735,0,1,1,2.736-2.734A2.735,2.735,0,0,1,473.023,424.507Z" transform="translate(-470.289 -318.392)" fill="#f9fbfc"/>
      </g>
      <g id="Group_45" data-name="Group 45" transform="translate(0 11.941)">
        <path id="Path_63" data-name="Path 63" d="M466.737,373.955a2.735,2.735,0,1,1,2.734-2.734A2.734,2.734,0,0,1,466.737,373.955Z" transform="translate(-464.001 -368.486)" fill="#f9fbfc"/>
        <path id="Path_64" data-name="Path 64" d="M466.737,388.3a2.735,2.735,0,1,1,2.734-2.736A2.736,2.736,0,0,1,466.737,388.3Z" transform="translate(-464.001 -357.663)" fill="#f9fbfc"/>
        <path id="Path_65" data-name="Path 65" d="M466.737,402.635a2.735,2.735,0,1,1,2.734-2.736A2.736,2.736,0,0,1,466.737,402.635Z" transform="translate(-464.001 -346.841)" fill="#f9fbfc"/>
        <path id="Path_66" data-name="Path 66" d="M466.737,416.974a2.735,2.735,0,1,1,2.734-2.736A2.736,2.736,0,0,1,466.737,416.974Z" transform="translate(-464.001 -336.019)" fill="#f9fbfc"/>
        <path id="Path_67" data-name="Path 67" d="M466.737,431.313a2.735,2.735,0,1,1,2.734-2.736A2.736,2.736,0,0,1,466.737,431.313Z" transform="translate(-464.001 -325.197)" fill="#f9fbfc"/>
      </g>
    </g>
  </g>
</svg>
